CATALOG 0000000000000
FILE "Super Robot Taisen F (Japan) (Rev A) (10M, 11M, 12M, 13M) (Track 1).bin" BINARY
  TRACK 01 MODE1/2352
    INDEX 01 00:00:00
FILE "Super Robot Taisen F (Japan) (Rev A) (10M, 11M, 12M, 13M) (Track 2).bin" BINARY
  TRACK 02 MODE2/2352
    INDEX 00 00:00:00
    INDEX 01 00:03:00
FILE "Super Robot Taisen F (Japan) (Rev A) (10M, 11M, 12M, 13M) (Track 3).bin" BINARY
  TRACK 03 AUDIO
    INDEX 00 00:00:00
    INDEX 01 00:02:00
